<svg xmlns="http://www.w3.org/2000/svg" width="20" height="20" viewBox="0 0 20 20">
    <g fill="none" fill-rule="evenodd">
        <path fill="#D8D8D8" fill-opacity="0" d="M0 0H24V24H0z" transform="translate(-2 -2)"/>
        <path fill="#475993" fill-rule="nonzero" d="M19.27 2H4.69C3.204 2 2 3.204 2 4.69v14.58c0 1.486 1.204 2.69 2.69 2.69h7.19l.013-7.132H10.04c-.24 0-.436-.195-.437-.436l-.01-2.3c0-.241.196-.438.438-.438h1.85V9.432c0-2.578 1.574-3.982 3.874-3.982h1.888c.241 0 .437.196.437.438v1.938c0 .242-.196.437-.437.438h-1.158c-1.251 0-1.493.594-1.493 1.467v1.923h2.748c.262 0 .465.229.434.489l-.272 2.299c-.026.22-.213.386-.435.386h-2.463l-.012 7.132h4.279c1.485 0 2.69-1.204 2.69-2.69V4.69c0-1.486-1.205-2.69-2.69-2.69z" transform="translate(-2 -2)"/>
    </g>
</svg>
