<?xml version="1.0" encoding="utf-8"?>
<!-- Generator: Adobe Illustrator 24.0.0, SVG Export Plug-In . SVG Version: 6.00 Build 0)  -->
<svg version="1.1" id="Layer_1" xmlns="http://www.w3.org/2000/svg" xmlns:xlink="http://www.w3.org/1999/xlink" x="0px" y="0px"
	 viewBox="0 0 1221.71 235.81" style="enable-background:new 0 0 1221.71 235.81;" xml:space="preserve">
<style type="text/css">
	.st0{fill:#313131;}
	.st1{fill-rule:evenodd;clip-rule:evenodd;fill:#F05323;}
</style>
<g>
	<g>
		<path class="st0" d="M1170.57,137.45c0-1.84-0.87-3.46-2.64-4.82c-1.74-1.38-3.99-2.52-6.76-3.41c-2.78-0.9-5.86-1.87-9.23-2.88
			c-3.39-1.02-6.76-2.3-10.07-3.85c-3.34-1.58-6.39-3.44-9.15-5.62c-2.76-2.18-5.04-5.11-6.78-8.79c-1.75-3.68-2.62-7.94-2.62-12.76
			c0-8.33,3.58-15.62,10.8-21.89c7.22-6.27,16.47-9.4,27.7-9.4c4.65,0,9.01,0.51,13.13,1.53c4.12,1.02,7.48,2.23,10.13,3.66
			c2.61,1.41,4.91,2.81,6.92,4.22c0.69,0.49,1.31,0.96,1.85,1.41l0.05,0.04c2.87,2.66,2.07,4.93,0.76,6.6l-8.72,9.11
			c-3.66,3.83-5.79,2.93-7.56,1.78l-0.03-0.02l-0.04-0.03l-0.06-0.04l-0.01-0.01l-0.07-0.05l-0.01-0.01l-0.45-0.3l-0.03-0.02
			l-0.05-0.04l-0.04-0.03l-0.04-0.03l-0.05-0.03l-0.03-0.02l-0.06-0.04c-0.99-0.63-2.26-1.35-3.82-2.16
			c-2.91-1.5-5.84-2.25-8.84-2.25c-3.1,0-5.72,0.87-7.8,2.62c-2.09,1.74-3.12,3.78-3.12,6.1c0,1.84,0.87,3.44,2.64,4.79
			c1.74,1.34,4,2.47,6.76,3.4c2.78,0.92,5.83,1.91,9.15,2.91c3.34,1.02,6.71,2.32,10.07,3.88c3.39,1.57,6.46,3.44,9.23,5.61
			c2.78,2.16,5.04,5.11,6.78,8.79c1.74,3.68,2.61,7.94,2.61,12.76c0,9.42-3.7,17.34-11.11,23.78c-7.44,6.42-17.29,9.64-29.59,9.64
			c-5.01,0-9.85-0.61-14.5-1.82c-4.68-1.19-8.5-2.66-11.5-4.36c-3-1.7-5.67-3.39-7.97-5.11c-2-1.46-3.54-2.76-4.63-3.87
			c-1.78-3.01,0.85-5.38,2.3-6.77l-0.04-0.04l7.02-7.33l0.03,0.05c4.37-4.57,6.55-2.4,8.54-1.12c1.42,1.28,2.95,2.39,4.57,3.37
			c1.6,0.97,3.61,1.84,6.03,2.59c2.42,0.77,4.82,1.14,7.24,1.14c3.88,0,7.02-1.07,9.47-3.19
			C1169.34,142.97,1170.57,140.43,1170.57,137.45z M1094.48,79.89c11,10.56,16.49,23.2,16.49,37.9c0,14.72-5.5,27.36-16.49,37.92
			c-10.99,10.58-24.39,15.86-40.15,15.86c-15.79,0-29.16-5.28-40.17-15.86c-10.99-10.56-16.49-23.2-16.49-37.92
			c0-14.7,5.5-27.34,16.49-37.93c11.02-10.56,24.39-15.84,40.17-15.84C1070.1,64.03,1083.49,69.31,1094.48,79.89z M1034.13,97.03
			c-5.44,5.52-8.16,12.45-8.16,20.75c0,8.33,2.72,15.26,8.16,20.8c5.45,5.52,12.18,8.31,20.22,8.31c8.04,0,14.77-2.78,20.19-8.31
			c5.4-5.55,8.12-12.47,8.12-20.8c0-8.31-2.71-15.23-8.12-20.75c-5.42-5.5-12.15-8.26-20.19-8.26
			C1046.32,88.78,1039.59,91.54,1034.13,97.03z M953.28,109.07c2.04-1.93,3.05-4.36,3.05-7.27c0-2.91-1.02-5.33-3.05-7.24
			c-2.04-1.91-4.68-2.88-7.9-2.88h-18.86v20.3h18.86C948.6,111.98,951.24,111.01,953.28,109.07z M898.91,164.65v-93.7
			c0.06-2.19,1.82-3.96,4.02-4.02h43.95c10.73,0,19.6,3.34,26.57,10.03c6.98,6.71,10.46,14.99,10.46,24.87
			c0,4.07-0.6,7.87-1.79,11.38c-1.21,3.54-2.67,6.39-4.39,8.6c-1.69,2.21-3.39,4.07-5.11,5.6c-1.7,1.55-3.1,2.59-4.24,3.17
			l-1.91,1.06l18.64,32.76l-0.01-0.01c1.95,3.38-2.13,4.26-4.16,4.28h-0.09h-18.83h-0.09c-1.9-0.04-3.97-1.18-5.17-3.21l-0.06-0.1
			l-15.63-28.68h-14.55v27.98c-0.06,2.19-1.82,3.96-4.02,4.02h-19.57C900.73,168.61,898.97,166.85,898.91,164.65z M829.17,145.4
			h48.27c2.19,0.06,3.96,1.82,4.02,4.02v15.24c-0.06,2.19-1.82,3.96-4.02,4.02h-71.86c-2.19-0.06-3.96-1.82-4.02-4.02v-93.7
			c0.06-2.19,1.82-3.96,4.02-4.02h70.45c2.19,0.06,3.96,1.82,4.02,4.02v15.24c-0.06,2.19-1.82,3.96-4.02,4.02h-46.86v15.96h35.21
			c2.19,0.06,3.96,1.82,4.02,4.02v13.81c-0.06,2.19-1.82,3.96-4.02,4.02h-35.21V145.4z M730.41,91.68h-11.65v52.28h11.65
			c7.1,0,13.22-2.49,18.36-7.48c5.16-4.99,7.75-11.21,7.75-18.69c0-7.66-2.45-13.93-7.32-18.79
			C744.34,94.13,738.07,91.68,730.41,91.68z M695.17,66.93h35.24c15.5,0,28.34,4.89,38.51,14.67c10.17,9.81,15.26,21.87,15.26,36.18
			c0,14.34-5.09,26.39-15.28,36.2c-10.19,9.78-23.03,14.67-38.48,14.67h-35.24c-2.19-0.06-3.96-1.82-4.02-4.02v-93.7
			C691.21,68.75,692.98,66.99,695.17,66.93z M657.23,79.89c10.99,10.56,16.49,23.2,16.49,37.9c0,14.72-5.5,27.36-16.49,37.92
			c-11,10.58-24.39,15.86-40.15,15.86c-15.79,0-29.16-5.28-40.18-15.86c-10.99-10.56-16.49-23.2-16.49-37.92
			c0-14.7,5.5-27.34,16.49-37.93c11.02-10.56,24.38-15.84,40.18-15.84C632.84,64.03,646.23,69.31,657.23,79.89z M596.88,97.03
			c-5.45,5.52-8.16,12.45-8.16,20.75c0,8.33,2.71,15.26,8.16,20.8c5.45,5.52,12.18,8.31,20.22,8.31c8.04,0,14.76-2.78,20.19-8.31
			c5.4-5.55,8.11-12.47,8.11-20.8c0-8.31-2.71-15.23-8.11-20.75c-5.43-5.5-12.16-8.26-20.19-8.26
			C609.06,88.78,602.33,91.54,596.88,97.03z M532.3,79.89c10.99,10.56,16.49,23.2,16.49,37.9c0,14.72-5.5,27.36-16.49,37.92
			c-11,10.58-24.39,15.86-40.15,15.86c-15.79,0-29.16-5.28-40.18-15.86c-10.99-10.56-16.49-23.2-16.49-37.92
			c0-14.7,5.5-27.34,16.49-37.93c11.02-10.56,24.39-15.84,40.18-15.84C507.91,64.03,521.3,69.31,532.3,79.89z M471.95,97.03
			c-5.45,5.52-8.17,12.45-8.17,20.75c0,8.33,2.72,15.26,8.17,20.8c5.45,5.52,12.18,8.31,20.22,8.31c8.04,0,14.77-2.78,20.2-8.31
			c5.4-5.55,8.11-12.47,8.11-20.8c0-8.31-2.71-15.23-8.11-20.75c-5.43-5.5-12.16-8.26-20.2-8.26
			C484.13,88.78,477.39,91.54,471.95,97.03z M353.79,66.93h70.45c2.19,0.06,3.96,1.82,4.02,4.02v16.72
			c-0.06,2.19-1.82,3.96-4.02,4.02h-46.86v16.68h35.21c2.19,0.06,3.96,1.82,4.02,4.02v16.64c-0.06,2.19-1.82,3.96-4.02,4.02h-35.21
			v31.61c-0.06,2.19-1.82,3.96-4.02,4.02h-19.57c-2.19-0.06-3.96-1.82-4.02-4.02v-93.7C349.83,68.75,351.6,66.99,353.79,66.93z"/>
		<path class="st1" d="M187.42,143.27c30.74,0,56.38-21.83,62.27-50.84h-62.27H84.48c-35.09,0-63.54,28.45-63.54,63.54
			c0,35.09,28.45,63.54,63.54,63.54c30.74,0,56.38-21.83,62.27-50.83H84.48c-7.02,0-12.71-5.69-12.71-12.71
			c0-7.02,5.69-12.71,12.71-12.71H187.42z M238.26,16.19H134.04c-30.74,0-56.38,21.83-62.27,50.83h62.27h104.21
			c30.74,0,56.38-21.83,62.27-50.83H238.26z"/>
	</g>
</g>
</svg>
