<svg width="28" height="20" viewBox="0 0 28 20" fill="none" xmlns="http://www.w3.org/2000/svg">
<path fill-rule="evenodd" clip-rule="evenodd" d="M21.3199 0.399902H11.4797C8.57695 0.399902 6.1558 2.46114 5.5998 5.1999H11.4797H21.3199C24.2227 5.1999 26.6438 3.13858 27.1998 0.399902H21.3199ZM16.5199 12.3999C19.4227 12.3999 21.8438 10.3386 22.3998 7.5999H16.5199H6.7998C3.48608 7.5999 0.799805 10.2862 0.799805 13.5999C0.799805 16.9136 3.48616 19.5999 6.7998 19.5999C9.70254 19.5999 12.1237 17.5386 12.6797 14.7999H6.7998C6.13706 14.7999 5.5998 14.2626 5.5998 13.5999C5.5998 12.9372 6.13706 12.3999 6.7998 12.3999H16.5199Z" fill="#FF5012"/>
</svg>
